FrauncesItalic-LightOpMax.ufo
<glyph name="two" format="2">
  <advance width="920"/>
  <unicode hex="0032"/>
  <outline>
    <contour>
      <point x="562.0" y="512.0" type="curve" smooth="yes"/>
      <point x="290.0" y="352.0"/>
      <point x="152.0" y="170.0"/>
      <point x="100.0" y="-22.0" type="curve" smooth="yes"/>
      <point x="98.0" y="-22.0"/>
      <point x="94.0" y="-20.0"/>
      <point x="94.0" y="-20.0" type="curve" smooth="yes"/>
      <point x="152.0" y="-20.0"/>
      <point x="192.0" y="168.0"/>
      <point x="308.0" y="168.0" type="curve" smooth="yes"/>
      <point x="426.0" y="168.0"/>
      <point x="484.0" y="-20.0"/>
      <point x="636.0" y="-20.0" type="curve" smooth="yes"/>
      <point x="768.0" y="-20.0"/>
      <point x="844.0" y="66.0"/>
      <point x="886.0" y="196.0" type="curve" smooth="yes"/>
      <point x="882.0" y="182.0"/>
      <point x="890.0" y="184.0"/>
      <point x="894.0" y="184.0" type="curve" smooth="yes"/>
      <point x="900.0" y="184.0"/>
      <point x="902.0" y="184.0"/>
      <point x="902.0" y="184.0" type="curve" smooth="yes"/>
      <point x="848.0" y="98.0"/>
      <point x="804.0" y="66.0"/>
      <point x="712.0" y="66.0" type="curve" smooth="yes"/>
      <point x="598.0" y="66.0"/>
      <point x="512.0" y="200.0"/>
      <point x="372.0" y="200.0" type="curve" smooth="yes"/>
      <point x="248.0" y="200.0"/>
      <point x="154.0" y="114.0"/>
      <point x="130.0" y="22.0" type="curve"/>
      <point x="104.0" y="22.0" type="line"/>
      <point x="154.0" y="206.0"/>
      <point x="264.0" y="336.0"/>
      <point x="554.0" y="500.0" type="curve" smooth="yes"/>
      <point x="896.0" y="684.0"/>
      <point x="1008.0" y="802.0"/>
      <point x="1054.0" y="986.0" type="curve" smooth="yes"/>
      <point x="1098.0" y="1154.0"/>
      <point x="1016.0" y="1284.0"/>
      <point x="848.0" y="1284.0" type="curve" smooth="yes"/>
      <point x="646.0" y="1284.0"/>
      <point x="436.0" y="1088.0"/>
      <point x="408.0" y="1006.0" type="curve" smooth="yes"/>
      <point x="392.0" y="960.0"/>
      <point x="402.0" y="942.0"/>
      <point x="442.0" y="942.0" type="curve" smooth="yes"/>
      <point x="464.0" y="942.0"/>
      <point x="504.0" y="976.0"/>
      <point x="512.0" y="1016.0" type="curve" smooth="yes"/>
      <point x="526.0" y="1072.0" type="line" smooth="yes"/>
      <point x="558.0" y="1204.0"/>
      <point x="644.0" y="1284.0"/>
      <point x="800.0" y="1284.0" type="curve" smooth="yes"/>
      <point x="948.0" y="1284.0"/>
      <point x="1040.0" y="1182.0"/>
      <point x="988.0" y="988.0" type="curve" smooth="yes"/>
      <point x="930.0" y="774.0"/>
      <point x="800.0" y="650.0"/>
    </contour>
  </outline>
</glyph>
<glyph name="three" format="2">
  <advance width="870"/>
  <unicode hex="0033"/>
  <outline>
    <contour>
      <point x="498.0" y="648.0" type="line"/>
      <point x="1100.0" y="1228.0" type="line" smooth="yes"/>
      <point x="1116.0" y="1244.0"/>
      <point x="1128.0" y="1248.0"/>
      <point x="1130.0" y="1260.0" type="curve" smooth="yes"/>
      <point x="1128.0" y="1258.0"/>
      <point x="1120.0" y="1258.0"/>
      <point x="1136.0" y="1258.0" type="curve" smooth="yes"/>
      <point x="476.0" y="1258.0" type="line" smooth="yes"/>
      <point x="488.0" y="1258.0"/>
      <point x="494.0" y="1252.0"/>
      <point x="490.0" y="1246.0" type="curve" smooth="yes"/>
      <point x="402.0" y="1050.0" type="line" smooth="yes"/>
      <point x="390.0" y="1032.0"/>
      <point x="392.0" y="1026.0"/>
      <point x="388.0" y="1026.0" type="curve" smooth="yes"/>
      <point x="392.0" y="1026.0"/>
      <point x="400.0" y="1030.0"/>
      <point x="398.0" y="1032.0" type="curve" smooth="yes"/>
      <point x="492.0" y="1156.0" type="line" smooth="yes"/>
      <point x="514.0" y="1186.0"/>
      <point x="532.0" y="1198.0"/>
      <point x="554.0" y="1198.0" type="curve" smooth="yes"/>
      <point x="1018.0" y="1198.0" type="line"/>
      <point x="1018.0" y="1172.0" type="line"/>
      <point x="488.0" y="652.0" type="line" smooth="yes"/>
      <point x="494.0" y="656.0"/>
      <point x="502.0" y="660.0"/>
      <point x="502.0" y="666.0" type="curve" smooth="yes"/>
      <point x="500.0" y="662.0"/>
      <point x="500.0" y="658.0"/>
      <point x="506.0" y="658.0" type="curve" smooth="yes"/>
      <point x="566.0" y="658.0" type="line" smooth="yes"/>
      <point x="776.0" y="658.0"/>
      <point x="882.0" y="538.0"/>
      <point x="816.0" y="286.0" type="curve" smooth="yes"/>
      <point x="772.0" y="122.0"/>
      <point x="624.0" y="-8.0"/>
      <point x="458.0" y="-10.0" type="curve" smooth="yes"/>
      <point x="302.0" y="-12.0"/>
      <point x="236.0" y="74.0"/>
      <point x="264.0" y="178.0" type="curve" smooth="yes"/>
      <point x="274.0" y="212.0" type="line" smooth="yes"/>
      <point x="286.0" y="254.0"/>
      <point x="264.0" y="286.0"/>
      <point x="224.0" y="286.0" type="curve" smooth="yes"/>
      <point x="196.0" y="286.0"/>
      <point x="164.0" y="260.0"/>
      <point x="154.0" y="226.0" type="curve" smooth="yes"/>
      <point x="118.0" y="90.0"/>
      <point x="186.0" y="-20.0"/>
      <point x="388.0" y="-20.0" type="curve" smooth="yes"/>
      <point x="594.0" y="-20.0"/>
      <point x="822.0" y="142.0"/>
      <point x="878.0" y="352.0" type="curve" smooth="yes"/>
      <point x="938.0" y="570.0"/>
      <point x="816.0" y="662.0"/>
      <point x="590.0" y="662.0" type="curve" smooth="yes"/>
      <point x="576.0" y="662.0"/>
      <point x="546.0" y="662.0"/>
      <point x="528.0" y="662.0" type="curve"/>
    </contour>
  </outline>
</glyph>
<glyph name="five" format="2">
  <advance width="882"/>
  <unicode hex="0035"/>
  <outline>
    <contour>
      <point x="200.0" y="170.0" type="curve" smooth="yes"/>
      <point x="200.0" y="62.0"/>
      <point x="290.0" y="-22.0"/>
      <point x="438.0" y="-22.0" type="curve" smooth="yes"/>
      <point x="710.0" y="-22.0"/>
      <point x="940.0" y="236.0"/>
      <point x="948.0" y="516.0" type="curve" smooth="yes"/>
      <point x="946.0" y="668.0"/>
      <point x="858.0" y="758.0"/>
      <point x="724.0" y="758.0" type="curve" smooth="yes"/>
      <point x="588.0" y="758.0"/>
      <point x="438.0" y="684.0"/>
      <point x="316.0" y="548.0" type="curve"/>
      <point x="324.0" y="552.0" type="line"/>
      <point x="490.0" y="1154.0" type="line"/>
      <point x="484.0" y="1206.0" type="line"/>
      <point x="564.0" y="1122.0"/>
      <point x="668.0" y="1068.0"/>
      <point x="798.0" y="1060.0" type="curve" smooth="yes"/>
      <point x="972.0" y="1048.0"/>
      <point x="1100.0" y="1146.0"/>
      <point x="1142.0" y="1312.0" type="curve" smooth="yes"/>
      <point x="1138.0" y="1294.0"/>
      <point x="1146.0" y="1286.0"/>
      <point x="1154.0" y="1286.0" type="curve" smooth="yes"/>
      <point x="1156.0" y="1286.0"/>
      <point x="1156.0" y="1284.0"/>
      <point x="1156.0" y="1280.0" type="curve" smooth="yes"/>
      <point x="1100.0" y="1182.0"/>
      <point x="996.0" y="1120.0"/>
      <point x="848.0" y="1120.0" type="curve" smooth="yes"/>
      <point x="672.0" y="1120.0"/>
      <point x="562.0" y="1284.0"/>
      <point x="524.0" y="1284.0" type="curve" smooth="yes"/>
      <point x="506.0" y="1284.0"/>
      <point x="496.0" y="1268.0"/>
      <point x="488.0" y="1242.0" type="curve" smooth="yes"/>
      <point x="294.0" y="488.0" type="line" smooth="yes"/>
      <point x="298.0" y="502.0"/>
      <point x="288.0" y="510.0"/>
      <point x="286.0" y="510.0" type="curve" smooth="yes"/>
      <point x="290.0" y="510.0"/>
      <point x="290.0" y="516.0"/>
      <point x="296.0" y="526.0" type="curve" smooth="yes"/>
      <point x="456.0" y="680.0"/>
      <point x="578.0" y="732.0"/>
      <point x="686.0" y="732.0" type="curve" smooth="yes"/>
      <point x="802.0" y="732.0"/>
      <point x="866.0" y="650.0"/>
      <point x="860.0" y="484.0" type="curve" smooth="yes"/>
      <point x="854.0" y="224.0"/>
      <point x="666.0" y="6.0"/>
      <point x="464.0" y="6.0" type="curve" smooth="yes"/>
      <point x="332.0" y="6.0"/>
      <point x="292.0" y="64.0"/>
      <point x="312.0" y="168.0" type="curve" smooth="yes"/>
      <point x="326.0" y="230.0" type="line" smooth="yes"/>
      <point x="334.0" y="264.0"/>
      <point x="324.0" y="294.0"/>
      <point x="290.0" y="294.0" type="curve" smooth="yes"/>
      <point x="224.0" y="294.0"/>
      <point x="196.0" y="230.0"/>
    </contour>
  </outline>
</glyph>
<glyph name="semicolon" format="2">
  <advance width="470"/>
  <unicode hex="003B"/>
  <outline>
    <contour>
      <point x="244.0" y="530.0" type="curve" smooth="yes"/>
      <point x="274.0" y="530.0"/>
      <point x="318.0" y="624.0"/>
      <point x="318.0" y="676.0" type="curve" smooth="yes"/>
      <point x="318.0" y="690.0"/>
      <point x="314.0" y="704.0"/>
      <point x="298.0" y="704.0" type="curve" smooth="yes"/>
      <point x="266.0" y="704.0"/>
      <point x="222.0" y="598.0"/>
      <point x="222.0" y="558.0" type="curve" smooth="yes"/>
      <point x="222.0" y="542.0"/>
      <point x="226.0" y="530.0"/>
    </contour>
    <contour>
      <point x="308.0" y="-30.0" type="curve" smooth="yes"/>
      <point x="314.0" y="-28.0"/>
      <point x="322.0" y="-32.0"/>
      <point x="322.0" y="-44.0" type="curve" smooth="yes"/>
      <point x="322.0" y="-150.0"/>
      <point x="228.0" y="-308.0"/>
      <point x="80.0" y="-400.0" type="curve" smooth="yes"/>
      <point x="90.0" y="-402.0"/>
      <point x="88.0" y="-394.0"/>
      <point x="88.0" y="-392.0" type="curve" smooth="yes"/>
      <point x="88.0" y="-386.0"/>
      <point x="84.0" y="-382.0"/>
      <point x="82.0" y="-382.0" type="curve" smooth="yes"/>
      <point x="78.0" y="-382.0"/>
      <point x="62.0" y="-386.0"/>
      <point x="56.0" y="-386.0" type="curve" smooth="yes"/>
      <point x="160.0" y="-336.0"/>
      <point x="318.0" y="-144.0"/>
      <point x="318.0" y="130.0" type="curve" smooth="yes"/>
      <point x="318.0" y="176.0"/>
      <point x="300.0" y="180.0"/>
      <point x="298.0" y="180.0" type="curve" smooth="yes"/>
      <point x="274.0" y="180.0"/>
      <point x="242.0" y="116.0"/>
      <point x="242.0" y="56.0" type="curve" smooth="yes"/>
      <point x="242.0" y="24.0"/>
      <point x="254.0" y="-14.0"/>
    </contour>
  </outline>
</glyph>
<glyph name="C" format="2">
  <advance width="1122"/>
  <unicode hex="0043"/>
  <outline>
    <contour>
      <point x="1170.0" y="392.0" type="curve" smooth="yes"/>
      <point x="1170.0" y="388.0"/>
      <point x="1172.0" y="388.0"/>
      <point x="1176.0" y="388.0" type="curve" smooth="yes"/>
      <point x="1180.0" y="388.0"/>
      <point x="1190.0" y="382.0"/>
      <point x="1186.0" y="374.0" type="curve" smooth="yes"/>
      <point x="1022.0" y="112.0"/>
      <point x="868.0" y="24.0"/>
      <point x="664.0" y="24.0" type="curve" smooth="yes"/>
      <point x="440.0" y="24.0"/>
      <point x="284.0" y="222.0"/>
      <point x="284.0" y="560.0" type="curve" smooth="yes"/>
      <point x="284.0" y="994.0"/>
      <point x="586.0" y="1420.0"/>
      <point x="932.0" y="1420.0" type="curve" smooth="yes"/>
      <point x="1120.0" y="1420.0"/>
      <point x="1218.0" y="1346.0"/>
      <point x="1280.0" y="1188.0" type="curve" smooth="yes"/>
      <point x="1326.0" y="1086.0" type="line" smooth="yes"/>
      <point x="1328.0" y="1090.0"/>
      <point x="1322.0" y="1088.0"/>
      <point x="1314.0" y="1088.0" type="curve" smooth="yes"/>
      <point x="1312.0" y="1088.0"/>
      <point x="1308.0" y="1082.0"/>
      <point x="1310.0" y="1068.0" type="curve" smooth="yes"/>
      <point x="1316.0" y="1426.0" type="line" smooth="yes"/>
      <point x="1318.0" y="1418.0"/>
      <point x="1310.0" y="1416.0"/>
      <point x="1302.0" y="1416.0" type="curve" smooth="yes"/>
      <point x="1276.0" y="1416.0"/>
      <point x="1256.0" y="1344.0"/>
      <point x="1228.0" y="1344.0" type="curve" smooth="yes"/>
      <point x="1184.0" y="1344.0"/>
      <point x="1120.0" y="1422.0"/>
      <point x="946.0" y="1422.0" type="curve" smooth="yes"/>
      <point x="604.0" y="1422.0"/>
      <point x="240.0" y="920.0"/>
      <point x="240.0" y="466.0" type="curve" smooth="yes"/>
      <point x="240.0" y="176.0"/>
      <point x="380.0" y="-20.0"/>
      <point x="592.0" y="-20.0" type="curve" smooth="yes"/>
      <point x="858.0" y="-20.0"/>
      <point x="1046.0" y="160.0"/>
      <point x="1162.0" y="368.0" type="curve" smooth="yes"/>
      <point x="1170.0" y="378.0"/>
      <point x="1170.0" y="386.0"/>
    </contour>
  </outline>
</glyph>
<glyph name="E" format="2">
  <advance width="998"/>
  <unicode hex="0045"/>
  <anchor x="966.0" y="1468.0" name="center"/>
  <outline>
    <contour>
      <point x="314.0" y="700.0" type="line"/>
      <point x="314.0" y="692.0" type="line"/>
      <point x="678.0" y="692.0" type="line" smooth="yes"/>
      <point x="760.0" y="692.0"/>
      <point x="804.0" y="660.0"/>
      <point x="840.0" y="554.0" type="curve" smooth="yes"/>
      <point x="842.0" y="550.0"/>
      <point x="844.0" y="548.0"/>
      <point x="848.0" y="550.0" type="curve" smooth="yes"/>
      <point x="852.0" y="552.0"/>
      <point x="850.0" y="554.0"/>
      <point x="848.0" y="566.0" type="curve" smooth="yes"/>
      <point x="798.0" y="854.0" type="line" smooth="yes"/>
      <point x="796.0" y="866.0"/>
      <point x="792.0" y="868.0"/>
      <point x="788.0" y="868.0" type="curve" smooth="yes"/>
      <point x="784.0" y="868.0"/>
      <point x="782.0" y="864.0"/>
      <point x="782.0" y="860.0" type="curve" smooth="yes"/>
      <point x="786.0" y="734.0"/>
      <point x="740.0" y="700.0"/>
      <point x="678.0" y="700.0" type="curve" smooth="yes"/>
    </contour>
    <contour>
      <point x="648.0" y="0.0" type="line" smooth="yes"/>
      <point x="664.0" y="0.0"/>
      <point x="668.0" y="-20.0"/>
      <point x="682.0" y="-20.0" type="curve" smooth="yes"/>
      <point x="768.0" y="-20.0"/>
      <point x="900.0" y="156.0"/>
      <point x="900.0" y="298.0" type="curve" smooth="yes"/>
      <point x="900.0" y="304.0"/>
      <point x="900.0" y="308.0"/>
      <point x="896.0" y="308.0" type="curve" smooth="yes"/>
      <point x="894.0" y="308.0"/>
      <point x="892.0" y="306.0"/>
      <point x="890.0" y="300.0" type="curve" smooth="yes"/>
      <point x="807.704583693467" y="102.49100086432088"/>
      <point x="702.0" y="8.0"/>
      <point x="566.0" y="8.0" type="curve" smooth="yes"/>
      <point x="370.0" y="8.0" type="line" smooth="yes"/>
      <point x="204.0" y="8.0"/>
      <point x="182.0" y="30.0"/>
      <point x="192.0" y="78.0" type="curve" smooth="yes"/>
      <point x="268.0" y="420.0"/>
      <point x="396.0" y="942.0"/>
      <point x="512.0" y="1392.0" type="curve"/>
      <point x="894.0" y="1392.0" type="line" smooth="yes"/>
      <point x="984.0" y="1392.0"/>
      <point x="1028.8053163244824" y="1354.220329599415"/>
      <point x="1084.0" y="1150.0" type="curve" smooth="yes"/>
      <point x="1086.1515109386812" y="1142.0394095268796"/>
      <point x="1090.0" y="1140.0"/>
      <point x="1094.0" y="1140.0" type="curve" smooth="yes"/>
      <point x="1098.0" y="1140.0"/>
      <point x="1097.6477632870972" y="1145.4543149625777"/>
      <point x="1096.0" y="1156.0" type="curve" smooth="yes"/>
      <point x="1056.0" y="1412.0" type="line" smooth="yes"/>
      <point x="1054.0" y="1426.0"/>
      <point x="1048.0" y="1430.0"/>
      <point x="1040.0" y="1430.0" type="curve" smooth="yes"/>
      <point x="1018.8071224117429" y="1430.0"/>
      <point x="988.1664071468151" y="1400.0"/>
      <point x="924.0" y="1400.0" type="curve" smooth="yes"/>
      <point x="286.0" y="1400.0" type="line" smooth="yes"/>
      <point x="282.0" y="1400.0"/>
      <point x="278.0" y="1398.0"/>
      <point x="278.0" y="1394.0" type="curve"/>
      <point x="278.0" y="1390.0"/>
      <point x="280.0" y="1388.0"/>
      <point x="292.0" y="1386.0" type="curve" smooth="yes"/>
      <point x="416.0" y="1370.0" type="line" smooth="yes"/>
      <point x="430.0" y="1368.0"/>
      <point x="444.0" y="1358.0"/>
      <point x="440.0" y="1336.0" type="curve" smooth="yes"/>
      <point x="360.0" y="970.0"/>
      <point x="228.0" y="436.0"/>
      <point x="132.0" y="72.0" type="curve"/>
      <point x="124.0" y="42.0"/>
      <point x="112.0" y="28.0"/>
      <point x="86.0" y="26.0" type="curve" smooth="yes"/>
      <point x="-28.0" y="14.0" type="line" smooth="yes"/>
      <point x="-36.0" y="14.0"/>
      <point x="-40.0" y="10.0"/>
      <point x="-40.0" y="6.0" type="curve" smooth="yes"/>
      <point x="-40.0" y="2.0"/>
      <point x="-36.0" y="0.0"/>
      <point x="-30.0" y="0.0" type="curve" smooth="yes"/>
    </contour>
  </outline>
</glyph>
<glyph name="N" format="2">
  <advance width="1158"/>
  <unicode hex="004E"/>
  <outline>
    <contour>
      <point x="132.0" y="88.0" type="line" smooth="yes"/>
      <point x="122.0" y="50.0"/>
      <point x="132.0" y="26.0"/>
      <point x="152.0" y="24.0" type="curve" smooth="yes"/>
      <point x="284.0" y="12.0" type="line" smooth="yes"/>
      <point x="288.0" y="12.0"/>
      <point x="292.0" y="10.0"/>
      <point x="292.0" y="6.0" type="curve" smooth="yes"/>
      <point x="292.0" y="2.0"/>
      <point x="290.0" y="0.0"/>
      <point x="286.0" y="0.0" type="curve" smooth="yes"/>
      <point x="-32.0" y="0.0" type="line" smooth="yes"/>
      <point x="-46.0" y="0.0"/>
      <point x="-52.0" y="0.0"/>
      <point x="-52.0" y="6.0" type="curve"/>
      <point x="-52.0" y="10.0"/>
      <point x="-48.0" y="14.0"/>
      <point x="-40.0" y="14.0" type="curve" smooth="yes"/>
      <point x="74.0" y="26.0" type="line" smooth="yes"/>
      <point x="102.0" y="28.0"/>
      <point x="110.0" y="42.0"/>
      <point x="120.0" y="76.0" type="curve" smooth="yes"/>
      <point x="410.0" y="1138.0" type="line" smooth="yes"/>
      <point x="418.0" y="1168.0"/>
      <point x="416.0" y="1186.0"/>
      <point x="406.0" y="1208.0" type="curve" smooth="yes"/>
      <point x="326.0" y="1388.0" type="line" smooth="yes"/>
      <point x="324.0" y="1394.0"/>
      <point x="326.0" y="1400.0"/>
      <point x="334.0" y="1400.0" type="curve" smooth="yes"/>
      <point x="360.0" y="1400.0" type="line" smooth="yes"/>
      <point x="378.0" y="1400.0"/>
      <point x="388.0" y="1390.0"/>
      <point x="398.0" y="1364.0" type="curve" smooth="yes"/>
      <point x="622.9295713228864" y="817.44216314065"/>
      <point x="750.0" y="496.0"/>
      <point x="884.0" y="160.0" type="curve"/>
      <point x="872.0" y="160.0" type="line"/>
      <point x="1156.0" y="1224.0" type="line" smooth="yes"/>
      <point x="1194.0" y="1364.0"/>
      <point x="1246.0" y="1414.0"/>
      <point x="1298.0" y="1414.0" type="curve" smooth="yes"/>
      <point x="1322.0" y="1414.0"/>
      <point x="1340.0" y="1398.0"/>
      <point x="1340.0" y="1378.0" type="curve" smooth="yes"/>
      <point x="1340.0" y="1350.0"/>
      <point x="1316.0" y="1328.0"/>
      <point x="1258.0" y="1306.0" type="curve" smooth="yes"/>
      <point x="1200.0" y="1284.0"/>
      <point x="1170.0" y="1244.0"/>
      <point x="1152.0" y="1178.0" type="curve" smooth="yes"/>
      <point x="890.0" y="186.0" type="line" smooth="yes"/>
      <point x="886.0" y="172.0"/>
      <point x="884.0" y="160.0"/>
      <point x="900.0" y="120.0" type="curve" smooth="yes"/>
      <point x="942.0" y="18.0" type="line" smooth="yes"/>
      <point x="946.0" y="6.0"/>
      <point x="944.0" y="0.0"/>
      <point x="934.0" y="0.0" type="curve" smooth="yes"/>
      <point x="882.0" y="0.0" type="line" smooth="yes"/>
      <point x="870.0" y="0.0"/>
      <point x="870.0" y="6.0"/>
      <point x="870.0" y="22.0" type="curve" smooth="yes"/>
      <point x="870.0" y="42.0"/>
      <point x="868.0" y="50.0"/>
      <point x="856.0" y="82.0" type="curve" smooth="yes"/>
      <point x="736.0" y="394.0"/>
      <point x="592.0" y="752.0"/>
      <point x="418.0" y="1172.0" type="curve"/>
      <point x="432.0" y="1184.0" type="line"/>
    </contour>
  </outline>
</glyph>
<glyph name="R" format="2">
  <advance width="1016"/>
  <unicode hex="0052"/>
  <outline>
    <contour>
      <point x="292.0" y="632.0" type="line"/>
      <point x="343.45168975276323" y="596.2075201719908"/>
      <point x="424.1212121212121" y="572.0"/>
      <point x="510.0" y="572.0" type="curve" smooth="yes"/>
      <point x="809.198606271777" y="572.0"/>
      <point x="1064.0" y="742.8474576271187"/>
      <point x="1064.0" y="1052.0" type="curve" smooth="yes"/>
      <point x="1064.0" y="1248.0"/>
      <point x="916.0" y="1400.0"/>
      <point x="638.0" y="1400.0" type="curve" smooth="yes"/>
      <point x="286.0" y="1400.0" type="line" smooth="yes"/>
      <point x="282.0" y="1400.0"/>
      <point x="278.0" y="1398.0"/>
      <point x="278.0" y="1394.0" type="curve" smooth="yes"/>
      <point x="278.0" y="1390.0"/>
      <point x="280.0" y="1388.0"/>
      <point x="292.0" y="1386.0" type="curve" smooth="yes"/>
      <point x="416.0" y="1370.0" type="line" smooth="yes"/>
      <point x="430.0" y="1368.0"/>
      <point x="444.0" y="1358.0"/>
      <point x="440.0" y="1336.0" type="curve" smooth="yes"/>
      <point x="358.0" y="964.0"/>
      <point x="228.0" y="436.0"/>
      <point x="132.0" y="72.0" type="curve" smooth="yes"/>
      <point x="124.0" y="42.0"/>
      <point x="112.0" y="28.0"/>
      <point x="86.0" y="26.0" type="curve" smooth="yes"/>
      <point x="-28.0" y="14.0" type="line" smooth="yes"/>
      <point x="-34.0" y="14.0"/>
      <point x="-40.0" y="12.0"/>
      <point x="-40.0" y="6.0" type="curve" smooth="yes"/>
      <point x="-40.0" y="2.0"/>
      <point x="-36.0" y="0.0"/>
      <point x="-30.0" y="0.0" type="curve" smooth="yes"/>
      <point x="348.0" y="0.0" type="line" smooth="yes"/>
      <point x="352.0" y="0.0"/>
      <point x="354.0" y="2.0"/>
      <point x="354.0" y="6.0" type="curve" smooth="yes"/>
      <point x="354.0" y="10.0"/>
      <point x="350.0" y="12.0"/>
      <point x="346.0" y="12.0" type="curve" smooth="yes"/>
      <point x="214.0" y="24.0" type="line" smooth="yes"/>
      <point x="194.0" y="26.0"/>
      <point x="186.0" y="50.0"/>
      <point x="192.0" y="78.0" type="curve" smooth="yes"/>
      <point x="270.0" y="438.0"/>
      <point x="404.0" y="966.0"/>
      <point x="496.0" y="1328.0" type="curve" smooth="yes"/>
      <point x="508.0" y="1378.0"/>
      <point x="558.0" y="1392.0"/>
      <point x="638.0" y="1392.0" type="curve" smooth="yes"/>
      <point x="898.0" y="1392.0"/>
      <point x="1006.0" y="1254.0"/>
      <point x="1006.0" y="1066.0" type="curve" smooth="yes"/>
      <point x="1006.0" y="756.9121338912134"/>
      <point x="798.3720930232558" y="580.0"/>
      <point x="510.0" y="580.0" type="curve" smooth="yes"/>
      <point x="423.875" y="580.0"/>
      <point x="353.97023186363197" y="604.6566701563661"/>
      <point x="298.0" y="636.0" type="curve"/>
    </contour>
    <contour>
      <point x="568.0" y="576.0" type="line"/>
      <point x="682.0" y="232.0" type="line" smooth="yes"/>
      <point x="748.0" y="32.0"/>
      <point x="786.0" y="-20.0"/>
      <point x="850.0" y="-20.0" type="curve" smooth="yes"/>
      <point x="902.0" y="-20.0"/>
      <point x="948.0" y="20.0"/>
      <point x="948.0" y="44.0" type="curve" smooth="yes"/>
      <point x="948.0" y="46.0"/>
      <point x="948.0" y="48.0"/>
      <point x="946.0" y="48.0" type="curve" smooth="yes"/>
      <point x="944.0" y="48.0"/>
      <point x="942.0" y="46.0"/>
      <point x="940.0" y="42.0" type="curve" smooth="yes"/>
      <point x="926.0" y="18.0"/>
      <point x="912.0" y="6.0"/>
      <point x="888.0" y="6.0" type="curve" smooth="yes"/>
      <point x="840.0" y="6.0"/>
      <point x="806.0" y="40.0"/>
      <point x="742.0" y="220.0" type="curve" smooth="yes"/>
      <point x="614.0" y="584.0" type="line"/>
    </contour>
  </outline>
</glyph>
<glyph name="S" format="2">
  <advance width="910"/>
  <unicode hex="0053"/>
  <outline>
    <contour>
      <point x="386.0" y="-20.0" type="curve" smooth="yes"/>
      <point x="586.0" y="-20.0"/>
      <point x="764.0" y="116.0"/>
      <point x="764.0" y="358.0" type="curve" smooth="yes"/>
      <point x="764.0" y="466.0"/>
      <point x="716.0" y="562.0"/>
      <point x="558.0" y="694.0" type="curve" smooth="yes"/>
      <point x="386.0" y="838.0"/>
      <point x="316.0" y="940.0"/>
      <point x="316.0" y="1064.0" type="curve" smooth="yes"/>
      <point x="316.0" y="1252.0"/>
      <point x="464.0" y="1412.0"/>
      <point x="692.0" y="1412.0" type="curve" smooth="yes"/>
      <point x="826.0" y="1412.0"/>
      <point x="918.0" y="1342.0"/>
      <point x="954.0" y="1190.0" type="curve" smooth="yes"/>
      <point x="970.0" y="1120.0" type="line" smooth="yes"/>
      <point x="976.0" y="1096.0"/>
      <point x="988.0" y="1086.0"/>
      <point x="1000.0" y="1086.0" type="curve" smooth="yes"/>
      <point x="1020.0" y="1086.0"/>
      <point x="1032.0" y="1106.0"/>
      <point x="1032.0" y="1148.0" type="curve" smooth="yes"/>
      <point x="1032.0" y="1292.0"/>
      <point x="906.0" y="1420.0"/>
      <point x="692.0" y="1420.0" type="curve" smooth="yes"/>
      <point x="438.0" y="1420.0"/>
      <point x="276.0" y="1212.0"/>
      <point x="276.0" y="1022.0" type="curve" smooth="yes"/>
      <point x="276.0" y="890.0"/>
      <point x="344.0" y="790.0"/>
      <point x="522.0" y="646.0" type="curve" smooth="yes"/>
      <point x="674.0" y="522.0"/>
      <point x="728.0" y="430.0"/>
      <point x="728.0" y="312.0" type="curve" smooth="yes"/>
      <point x="728.0" y="140.0"/>
      <point x="590.0" y="-12.0"/>
      <point x="388.0" y="-12.0" type="curve" smooth="yes"/>
      <point x="222.0" y="-12.0"/>
      <point x="104.0" y="80.0"/>
      <point x="72.0" y="290.0" type="curve" smooth="yes"/>
      <point x="62.0" y="356.0" type="line" smooth="yes"/>
      <point x="62.0" y="360.0"/>
      <point x="60.0" y="362.0"/>
      <point x="58.0" y="362.0" type="curve" smooth="yes"/>
      <point x="56.0" y="362.0"/>
      <point x="56.0" y="360.0"/>
      <point x="56.0" y="356.0" type="curve" smooth="yes"/>
      <point x="26.0" y="6.0" type="line" smooth="yes"/>
      <point x="26.0" y="0.0"/>
      <point x="28.0" y="-4.0"/>
      <point x="32.0" y="-4.0" type="curve" smooth="yes"/>
      <point x="46.0" y="-4.0"/>
      <point x="88.0" y="98.0"/>
      <point x="110.0" y="98.0" type="curve" smooth="yes"/>
      <point x="134.0" y="98.0"/>
      <point x="196.0" y="-20.0"/>
    </contour>
  </outline>
</glyph>
<glyph name="T" format="2">
  <advance width="928"/>
  <unicode hex="0054"/>
  <outline>
    <contour>
      <point x="358.0" y="1428.0" type="curve" smooth="yes"/>
      <point x="248.0" y="1428.0"/>
      <point x="184.0" y="1369.4084507042253"/>
      <point x="184.0" y="1268.0" type="curve" smooth="yes"/>
      <point x="184.0" y="1208.0"/>
      <point x="212.0" y="1178.0"/>
      <point x="252.0" y="1178.0" type="curve" smooth="yes"/>
      <point x="282.0" y="1178.0"/>
      <point x="300.0" y="1200.0"/>
      <point x="300.0" y="1222.0" type="curve" smooth="yes"/>
      <point x="300.0" y="1258.5283018867924"/>
      <point x="210.0" y="1273.4716981132076"/>
      <point x="210.0" y="1310.0" type="curve" smooth="yes"/>
      <point x="210.0" y="1374.5652173913043"/>
      <point x="258.0" y="1420.0"/>
      <point x="356.0" y="1420.0" type="curve" smooth="yes"/>
      <point x="460.0" y="1420.0"/>
      <point x="918.0" y="1320.0"/>
      <point x="996.0" y="1320.0" type="curve" smooth="yes"/>
      <point x="1108.0" y="1320.0"/>
      <point x="1170.0" y="1361.8181818181818"/>
      <point x="1170.0" y="1412.0" type="curve" smooth="yes"/>
      <point x="1170.0" y="1444.0"/>
      <point x="1152.0" y="1458.0"/>
      <point x="1130.0" y="1458.0" type="curve" smooth="yes"/>
      <point x="1098.0" y="1458.0"/>
      <point x="1080.0" y="1438.0"/>
      <point x="1066.0" y="1380.0" type="curve" smooth="yes"/>
      <point x="1055.2139038906078" y="1336.8556155624312"/>
      <point x="1038.0" y="1328.0"/>
      <point x="1000.0" y="1328.0" type="curve" smooth="yes"/>
      <point x="920.0" y="1328.0"/>
      <point x="458.0" y="1428.0"/>
    </contour>
    <contour>
      <point x="404.0" y="78.0" type="curve" smooth="yes"/>
      <point x="488.0" y="416.0"/>
      <point x="626.0" y="952.0"/>
      <point x="740.0" y="1366.0" type="curve"/>
      <point x="682.0" y="1376.0" type="line"/>
      <point x="582.0" y="968.0"/>
      <point x="446.0" y="438.0"/>
      <point x="344.0" y="72.0" type="curve" smooth="yes"/>
      <point x="336.0" y="42.0"/>
      <point x="324.0" y="28.0"/>
      <point x="298.0" y="26.0" type="curve" smooth="yes"/>
      <point x="184.0" y="14.0" type="line" smooth="yes"/>
      <point x="178.0" y="14.0"/>
      <point x="172.0" y="12.0"/>
      <point x="172.0" y="6.0" type="curve" smooth="yes"/>
      <point x="172.0" y="2.0"/>
      <point x="176.0" y="0.0"/>
      <point x="182.0" y="0.0" type="curve" smooth="yes"/>
      <point x="558.0" y="0.0" type="line" smooth="yes"/>
      <point x="564.0" y="0.0"/>
      <point x="566.0" y="2.0"/>
      <point x="566.0" y="6.0" type="curve" smooth="yes"/>
      <point x="566.0" y="10.0"/>
      <point x="562.0" y="12.0"/>
      <point x="558.0" y="12.0" type="curve" smooth="yes"/>
      <point x="432.0" y="24.0" type="line" smooth="yes"/>
      <point x="406.0" y="26.0"/>
      <point x="396.0" y="42.0"/>
    </contour>
  </outline>
</glyph>
<glyph name="Y" format="2">
  <advance width="1004"/>
  <unicode hex="0059"/>
  <anchor x="912.0" y="1496.0" name="center"/>
  <outline>
    <contour>
      <point x="598.0" y="324.0" type="curve"/>
      <point x="602.0" y="328.0" type="line"/>
      <point x="610.0" y="366.0"/>
      <point x="612.0" y="556.0"/>
      <point x="612.0" y="716.0" type="curve" smooth="yes"/>
      <point x="612.0" y="1070.0"/>
      <point x="604.0" y="1156.0"/>
      <point x="554.0" y="1300.0" type="curve" smooth="yes"/>
      <point x="524.0" y="1380.0"/>
      <point x="484.0" y="1412.0"/>
      <point x="402.0" y="1412.0" type="curve" smooth="yes"/>
      <point x="402.0" y="1412.0"/>
      <point x="360.0" y="1404.0"/>
      <point x="360.0" y="1388.0" type="curve" smooth="yes"/>
      <point x="360.0" y="1386.0"/>
      <point x="366.0" y="1384.0"/>
      <point x="382.0" y="1394.0" type="curve" smooth="yes"/>
      <point x="456.0" y="1424.0"/>
      <point x="554.0" y="1212.0"/>
      <point x="568.0" y="602.0" type="curve" smooth="yes"/>
      <point x="572.0" y="450.0"/>
      <point x="572.0" y="416.0"/>
      <point x="562.0" y="370.0" type="curve" smooth="yes"/>
      <point x="500.0" y="108.0" type="line" smooth="yes"/>
      <point x="488.0" y="52.0"/>
      <point x="456.0" y="28.0"/>
      <point x="408.0" y="16.0" type="curve" smooth="yes"/>
      <point x="308.0" y="-10.0" type="line" smooth="yes"/>
      <point x="300.0" y="-14.0"/>
      <point x="300.0" y="-2.0"/>
      <point x="292.0" y="-4.0" type="curve" smooth="yes"/>
      <point x="284.0" y="-2.0"/>
      <point x="290.0" y="0.0"/>
      <point x="300.0" y="0.0" type="curve" smooth="yes"/>
      <point x="654.0" y="0.0" type="line" smooth="yes"/>
      <point x="668.0" y="0.0"/>
      <point x="672.0" y="0.0"/>
      <point x="680.0" y="-4.0" type="curve" smooth="yes"/>
      <point x="690.0" y="2.0"/>
      <point x="678.0" y="10.0"/>
      <point x="670.0" y="6.0" type="curve" smooth="yes"/>
      <point x="590.0" y="16.0" type="line" smooth="yes"/>
      <point x="544.0" y="18.0"/>
      <point x="530.0" y="16.0"/>
      <point x="544.0" y="72.0" type="curve" smooth="yes"/>
      <point x="598.0" y="302.0" type="line" smooth="yes"/>
      <point x="606.0" y="336.0"/>
      <point x="638.0" y="328.0"/>
      <point x="700.0" y="490.0" type="curve" smooth="yes"/>
      <point x="1054.0" y="1300.0"/>
      <point x="1156.0" y="1378.0"/>
      <point x="1274.0" y="1378.0" type="curve" smooth="yes"/>
      <point x="1312.0" y="1378.0"/>
      <point x="1342.0" y="1324.0"/>
      <point x="1386.0" y="1324.0" type="curve" smooth="yes"/>
      <point x="1404.0" y="1324.0"/>
      <point x="1422.0" y="1352.0"/>
      <point x="1422.0" y="1392.0" type="curve" smooth="yes"/>
      <point x="1422.0" y="1406.0"/>
      <point x="1402.0" y="1420.0"/>
      <point x="1356.0" y="1420.0" type="curve" smooth="yes"/>
      <point x="1160.0" y="1420.0"/>
      <point x="1048.0" y="1274.0"/>
    </contour>
  </outline>
</glyph>
<glyph name="Z" format="2">
  <advance width="996"/>
  <unicode hex="005A"/>
  <outline>
    <contour>
      <point x="790.0" y="0.0" type="line" smooth="yes"/>
      <point x="814.0" y="0.0"/>
      <point x="836.0" y="-20.0"/>
      <point x="852.0" y="-20.0" type="curve" smooth="yes"/>
      <point x="920.0" y="-20.0"/>
      <point x="996.0" y="130.0"/>
      <point x="996.0" y="294.0" type="curve" smooth="yes"/>
      <point x="996.0" y="268.0"/>
      <point x="994.0" y="258.0"/>
      <point x="1000.0" y="258.0" type="curve" smooth="yes"/>
      <point x="1004.0" y="258.0"/>
      <point x="1010.0" y="252.0"/>
      <point x="1018.0" y="254.0" type="curve" smooth="yes"/>
      <point x="1018.0" y="226.0" type="line" smooth="yes"/>
      <point x="966.0" y="72.0"/>
      <point x="860.0" y="-2.0"/>
      <point x="716.0" y="-2.0" type="curve" smooth="yes"/>
      <point x="136.0" y="-2.0" type="line"/>
      <point x="178.0" y="20.0" type="line"/>
      <point x="520.0" y="444.0"/>
      <point x="914.0" y="914.0"/>
      <point x="1316.0" y="1404.0" type="curve" smooth="yes"/>
      <point x="1324.0" y="1418.0"/>
      <point x="1320.0" y="1404.0"/>
      <point x="1320.0" y="1410.0" type="curve" smooth="yes"/>
      <point x="1320.0" y="1400.0"/>
      <point x="1318.0" y="1396.0"/>
      <point x="1324.0" y="1396.0" type="curve" smooth="yes"/>
      <point x="658.0" y="1396.0" type="line" smooth="yes"/>
      <point x="620.0" y="1396.0"/>
      <point x="604.0" y="1430.0"/>
      <point x="580.0" y="1430.0" type="curve" smooth="yes"/>
      <point x="588.0" y="1430.0"/>
      <point x="594.0" y="1428.0"/>
      <point x="586.0" y="1434.0" type="curve" smooth="yes"/>
      <point x="418.0" y="1162.0" type="line" smooth="yes"/>
      <point x="410.0" y="1156.0"/>
      <point x="408.0" y="1150.0"/>
      <point x="408.0" y="1144.0" type="curve" smooth="yes"/>
      <point x="408.0" y="1146.0"/>
      <point x="402.0" y="1148.0"/>
      <point x="390.0" y="1148.0" type="curve" smooth="yes"/>
      <point x="392.0" y="1148.0"/>
      <point x="402.0" y="1146.0"/>
      <point x="392.0" y="1138.0" type="curve" smooth="yes"/>
      <point x="472.0" y="1232.0" type="line" smooth="yes"/>
      <point x="566.0" y="1350.0"/>
      <point x="630.0" y="1398.0"/>
      <point x="732.0" y="1398.0" type="curve" smooth="yes"/>
      <point x="1224.0" y="1398.0" type="line"/>
      <point x="1200.0" y="1374.0" type="line"/>
      <point x="854.0" y="946.0"/>
      <point x="464.0" y="474.0"/>
      <point x="-4.0" y="-60.0" type="curve" smooth="yes"/>
      <point x="2.0" y="-58.0"/>
      <point x="32.0" y="-22.0"/>
      <point x="32.0" y="-14.0" type="curve" smooth="yes"/>
      <point x="32.0" y="-2.0"/>
      <point x="32.0" y="0.0"/>
      <point x="32.0" y="0.0" type="curve" smooth="yes"/>
    </contour>
  </outline>
</glyph>
<glyph name="a" format="2">
  <advance width="819"/>
  <unicode hex="0061"/>
  <anchor x="695.0" y="1040.0" name="center"/>
  <outline>
    <contour>
      <point x="565" y="93" type="curve" smooth="yes"/>
      <point x="565" y="169"/>
      <point x="633" y="375"/>
      <point x="753" y="805" type="curve" smooth="yes"/>
      <point x="757" y="817"/>
      <point x="771" y="815"/>
      <point x="771" y="829" type="curve" smooth="yes"/>
      <point x="771" y="845"/>
      <point x="757" y="865"/>
      <point x="687" y="865" type="curve" smooth="yes"/>
      <point x="378" y="865"/>
      <point x="27" y="489"/>
      <point x="27" y="123" type="curve" smooth="yes"/>
      <point x="27" y="29"/>
      <point x="72" y="-15"/>
      <point x="151" y="-15" type="curve" smooth="yes"/>
      <point x="290" y="-15"/>
      <point x="504" y="213"/>
      <point x="623" y="494" type="curve"/>
      <point x="619" y="504" type="line"/>
      <point x="554" y="286"/>
      <point x="507" y="178"/>
      <point x="507" y="49" type="curve" smooth="yes"/>
      <point x="507" y="5"/>
      <point x="533" y="-15"/>
      <point x="566" y="-15" type="curve" smooth="yes"/>
      <point x="634" y="-15"/>
      <point x="687" y="21"/>
      <point x="733" y="115" type="curve" smooth="yes"/>
      <point x="735" y="119"/>
      <point x="735" y="123"/>
      <point x="731" y="123" type="curve" smooth="yes"/>
      <point x="729" y="123"/>
      <point x="725" y="119"/>
      <point x="719" y="109" type="curve" smooth="yes"/>
      <point x="687" y="61"/>
      <point x="649" y="35"/>
      <point x="617" y="35" type="curve" smooth="yes"/>
      <point x="587" y="35"/>
      <point x="565" y="55"/>
    </contour>
    <contour>
      <point x="81" y="163" type="curve" smooth="yes"/>
      <point x="81" y="533"/>
      <point x="398" y="847"/>
      <point x="657" y="847" type="curve" smooth="yes"/>
      <point x="691" y="847"/>
      <point x="703" y="839"/>
      <point x="703" y="811" type="curve" smooth="yes"/>
      <point x="703" y="543"/>
      <point x="368" y="17"/>
      <point x="176" y="17" type="curve" smooth="yes"/>
      <point x="115" y="17"/>
      <point x="81" y="52"/>
    </contour>
  </outline>
</glyph>
<glyph name="b" format="2">
  <advance width="820"/>
  <unicode hex="0062"/>
  <outline>
    <contour>
      <point x="362" y="1028" type="line" smooth="yes"/>
      <point x="422.87460874543626" y="1245.328042436978"/>
      <point x="549.2098092643051" y="1373.0"/>
      <point x="709" y="1373.0" type="curve" smooth="yes"/>
      <point x="784.1034482758621" y="1373.0"/>
      <point x="822.7931034482758" y="1354.0"/>
      <point x="874" y="1354.0" type="curve" smooth="yes"/>
      <point x="905" y="1354"/>
      <point x="930.0" y="1366.0"/>
      <point x="930" y="1382" type="curve" smooth="yes"/>
      <point x="930" y="1398"/>
      <point x="910" y="1412"/>
      <point x="859" y="1412.0" type="curve" smooth="yes"/>
      <point x="548" y="1412.0"/>
      <point x="372" y="1251"/>
      <point x="290" y="954" type="curve" smooth="yes"/>
      <point x="29" y="10" type="line" smooth="yes"/>
      <point x="27" y="4"/>
      <point x="27" y="-2"/>
      <point x="27" y="-4" type="curve" smooth="yes"/>
      <point x="27" y="-6"/>
      <point x="31" y="-10"/>
      <point x="33" y="-10" type="curve" smooth="yes"/>
      <point x="39" y="-10"/>
      <point x="41" y="-8"/>
      <point x="45" y="0" type="curve" smooth="yes"/>
      <point x="126" y="186" type="line"/>
      <point x="98" y="216" type="line"/>
      <point x="98.0" y="44"/>
      <point x="139.0" y="-15.0"/>
      <point x="271" y="-15" type="curve" smooth="yes"/>
      <point x="490" y="-15.0"/>
      <point x="798.0" y="303.0"/>
      <point x="798" y="683" type="curve" smooth="yes"/>
      <point x="798.0" y="798.0"/>
      <point x="753" y="865.0"/>
      <point x="658" y="865" type="curve" smooth="yes"/>
      <point x="483.0" y="865.0"/>
      <point x="239" y="567"/>
      <point x="140" y="264" type="curve"/>
      <point x="148" y="264" type="line"/>
    </contour>
    <contour>
      <point x="632" y="837" type="curve" smooth="yes"/>
      <point x="700.5565217391304" y="837.0"/>
      <point x="740.0" y="782.0"/>
      <point x="740" y="663" type="curve" smooth="yes"/>
      <point x="740.0" y="268.0"/>
      <point x="456.21019108280257" y="-7.0"/>
      <point x="271" y="-7" type="curve" smooth="yes"/>
      <point x="180.0" y="-7.0"/>
      <point x="132.0" y="39.48101265822784"/>
      <point x="132" y="146" type="curve" smooth="yes"/>
      <point x="132.0" y="379.6909620991254"/>
      <point x="450.1818181818182" y="837.0"/>
    </contour>
  </outline>
</glyph>
<glyph name="f" format="2">
  <advance width="442"/>
  <unicode hex="0066"/>
  <outline>
    <contour>
      <point x="304.0" y="830.0" type="line"/>
      <point x="510.0" y="830.0" type="line" smooth="yes"/>
      <point x="524.0" y="830.0"/>
      <point x="534.0" y="836.0"/>
      <point x="534.0" y="844.0" type="curve" smooth="yes"/>
      <point x="534.0" y="848.0"/>
      <point x="530.0" y="850.0"/>
      <point x="524.0" y="850.0" type="curve" smooth="yes"/>
      <point x="312.0" y="850.0" type="line"/>
    </contour>
    <contour>
      <point x="126.0" y="844.0" type="curve" smooth="yes"/>
      <point x="126.0" y="842.0"/>
      <point x="128.0" y="836.0"/>
      <point x="136.0" y="836.0" type="curve" smooth="yes"/>
      <point x="268.0" y="826.0"/>
      <point x="280.0" y="808.0"/>
      <point x="270.0" y="776.0" type="curve" smooth="yes"/>
      <point x="4.0" y="-142.0" type="line" smooth="yes"/>
      <point x="-30.0" y="-264.0"/>
      <point x="-38.0" y="-286.0"/>
      <point x="-38.0" y="-310.0" type="curve" smooth="yes"/>
      <point x="-38.0" y="-336.0"/>
      <point x="-26.0" y="-350.0"/>
      <point x="-6.0" y="-350.0" type="curve" smooth="yes"/>
      <point x="22.0" y="-350.0"/>
      <point x="44.0" y="-336.0"/>
      <point x="44.0" y="-312.0" type="curve" smooth="yes"/>
      <point x="44.0" y="-292.0"/>
      <point x="36.0" y="-274.0"/>
      <point x="36.0" y="-242.0" type="curve" smooth="yes"/>
      <point x="36.0" y="-216.0"/>
      <point x="44.0" y="-180.0"/>
      <point x="58.0" y="-130.0" type="curve" smooth="yes"/>
      <point x="326.0" y="796.0" type="line" smooth="yes"/>
      <point x="348.0" y="870.0"/>
      <point x="358.0" y="948.0"/>
      <point x="358.0" y="1004.0" type="curve" smooth="yes"/>
      <point x="358.0" y="1210.0"/>
      <point x="494.0" y="1386.0"/>
      <point x="622.0" y="1386.0" type="curve" smooth="yes"/>
      <point x="676.0" y="1386.0"/>
      <point x="708.0" y="1358.0"/>
      <point x="740.0" y="1358.0" type="curve" smooth="yes"/>
      <point x="764.0" y="1358.0"/>
      <point x="774.0" y="1368.0"/>
      <point x="774.0" y="1384.0" type="curve" smooth="yes"/>
      <point x="774.0" y="1402.0"/>
      <point x="756.0" y="1416.0"/>
      <point x="708.0" y="1416.0" type="curve" smooth="yes"/>
      <point x="530.0" y="1416.0"/>
      <point x="406.0" y="1300.0"/>
      <point x="356.0" y="1108.0" type="curve" smooth="yes"/>
      <point x="290.0" y="850.0" type="line"/>
      <point x="134.0" y="850.0" type="line" smooth="yes"/>
      <point x="130.0" y="850.0"/>
      <point x="126.0" y="848.0"/>
    </contour>
  </outline>
</glyph>
<glyph name="g" format="2">
  <advance width="770"/>
  <unicode hex="0067"/>
  <outline>
    <contour>
      <point x="586" y="-16" type="curve" smooth="yes"/>
      <point x="642" y="199"/>
      <point x="730" y="632"/>
      <point x="752" y="803" type="curve" smooth="yes"/>
      <point x="754" y="819"/>
      <point x="770" y="813"/>
      <point x="770" y="829" type="curve" smooth="yes"/>
      <point x="770" y="851"/>
      <point x="742" y="865"/>
      <point x="686" y="865" type="curve" smooth="yes"/>
      <point x="379" y="865"/>
      <point x="24" y="482"/>
      <point x="24" y="118" type="curve" smooth="yes"/>
      <point x="24" y="29"/>
      <point x="74" y="-16"/>
      <point x="150" y="-16" type="curve" smooth="yes"/>
      <point x="289" y="-16"/>
      <point x="567" y="244"/>
      <point x="699" y="699" type="curve"/>
      <point x="696" y="705" type="line"/>
      <point x="686" y="625"/>
      <point x="633" y="367"/>
      <point x="506" y="-130" type="curve" smooth="yes"/>
      <point x="446" y="-365"/>
      <point x="261" y="-452"/>
      <point x="126" y="-452" type="curve" smooth="yes"/>
      <point x="48" y="-452"/>
      <point x="-16" y="-424"/>
      <point x="-76" y="-424" type="curve" smooth="yes"/>
      <point x="-112" y="-424"/>
      <point x="-128" y="-436"/>
      <point x="-128" y="-454" type="curve" smooth="yes"/>
      <point x="-128" y="-474"/>
      <point x="-106" y="-490"/>
      <point x="-48" y="-490" type="curve" smooth="yes"/>
      <point x="243" y="-490"/>
      <point x="488" y="-391"/>
    </contour>
    <contour>
      <point x="78" y="138" type="curve" smooth="yes"/>
      <point x="78" y="543"/>
      <point x="411" y="849"/>
      <point x="662" y="849" type="curve" smooth="yes"/>
      <point x="688" y="849"/>
      <point x="700" y="835"/>
      <point x="700" y="813" type="curve" smooth="yes"/>
      <point x="700" y="542"/>
      <point x="385" y="19"/>
      <point x="177" y="19" type="curve" smooth="yes"/>
      <point x="120" y="19"/>
      <point x="78" y="51"/>
    </contour>
  </outline>
</glyph>
<glyph name="h" format="2">
  <advance width="809"/>
  <unicode hex="0068"/>
  <outline>
    <contour>
      <point x="128" y="220" type="curve" smooth="yes"/>
      <point x="98" y="128"/>
      <point x="94" y="102"/>
      <point x="94" y="70" type="curve" smooth="yes"/>
      <point x="94" y="54"/>
      <point x="104" y="44"/>
      <point x="104" y="32" type="curve" smooth="yes"/>
      <point x="104" y="6"/>
      <point x="74" y="-14"/>
      <point x="44" y="-14" type="curve" smooth="yes"/>
      <point x="30" y="-14"/>
      <point x="18" y="-8"/>
      <point x="18" y="6" type="curve" smooth="yes"/>
      <point x="18" y="18"/>
      <point x="23" y="28"/>
      <point x="36" y="70" type="curve" smooth="yes"/>
      <point x="306" y="912" type="line" smooth="yes"/>
      <point x="427" y="1291"/>
      <point x="574" y="1414"/>
      <point x="920" y="1414" type="curve" smooth="yes"/>
      <point x="967" y="1414"/>
      <point x="984" y="1401"/>
      <point x="984" y="1382" type="curve" smooth="yes"/>
      <point x="984" y="1364"/>
      <point x="962" y="1354"/>
      <point x="924" y="1354" type="curve" smooth="yes"/>
      <point x="879" y="1354"/>
      <point x="824" y="1380"/>
      <point x="754" y="1380" type="curve" smooth="yes"/>
      <point x="620" y="1380"/>
      <point x="484" y="1302"/>
      <point x="406" y="1078" type="curve" smooth="yes"/>
      <point x="340" y="888"/>
      <point x="222" y="538"/>
      <point x="202" y="412" type="curve"/>
      <point x="192" y="414" type="line"/>
      <point x="356" y="728"/>
      <point x="510" y="865"/>
      <point x="665" y="865" type="curve" smooth="yes"/>
      <point x="707" y="865"/>
      <point x="738" y="839"/>
      <point x="738" y="787" type="curve" smooth="yes"/>
      <point x="738" y="733"/>
      <point x="731" y="701"/>
      <point x="712" y="641" type="curve" smooth="yes"/>
      <point x="568" y="198" type="line" smooth="yes"/>
      <point x="556" y="160"/>
      <point x="546" y="122"/>
      <point x="546" y="89" type="curve" smooth="yes"/>
      <point x="546" y="49"/>
      <point x="564" y="31"/>
      <point x="588" y="31" type="curve" smooth="yes"/>
      <point x="630" y="31"/>
      <point x="668" y="55"/>
      <point x="706" y="116" type="curve" smooth="yes"/>
      <point x="710" y="122"/>
      <point x="712" y="124"/>
      <point x="714" y="124" type="curve" smooth="yes"/>
      <point x="718" y="124"/>
      <point x="719" y="120"/>
      <point x="718" y="118" type="curve" smooth="yes"/>
      <point x="670" y="27"/>
      <point x="617" y="-14"/>
      <point x="546" y="-14" type="curve" smooth="yes"/>
      <point x="508" y="-14"/>
      <point x="488" y="10"/>
      <point x="488" y="52" type="curve" smooth="yes"/>
      <point x="488" y="84"/>
      <point x="493" y="114"/>
      <point x="507" y="156" type="curve" smooth="yes"/>
      <point x="666" y="651" type="line" smooth="yes"/>
      <point x="678" y="689"/>
      <point x="684" y="723"/>
      <point x="684" y="761" type="curve" smooth="yes"/>
      <point x="684" y="804"/>
      <point x="660" y="835"/>
      <point x="622" y="835" type="curve" smooth="yes"/>
      <point x="472" y="835"/>
      <point x="256" y="608"/>
    </contour>
  </outline>
</glyph>
<glyph name="k" format="2">
  <advance width="804"/>
  <unicode hex="006B"/>
  <outline>
    <contour>
      <point x="328.0" y="446.0" type="line"/>
      <point x="450.0" y="690.0"/>
      <point x="630.0" y="870.0"/>
      <point x="832.0" y="870.0" type="curve" smooth="yes"/>
      <point x="896.0" y="870.0"/>
      <point x="930.0" y="834.0"/>
      <point x="930.0" y="768.0" type="curve" smooth="yes"/>
      <point x="930.0" y="636.0"/>
      <point x="804.0" y="528.0"/>
      <point x="270.0" y="336.0" type="curve"/>
      <point x="266.0" y="332.0" type="line"/>
      <point x="766.0" y="520.0"/>
      <point x="882.0" y="624.0"/>
      <point x="882.0" y="744.0" type="curve" smooth="yes"/>
      <point x="882.0" y="810.0"/>
      <point x="836.0" y="840.0"/>
      <point x="764.0" y="840.0" type="curve" smooth="yes"/>
      <point x="602.0" y="840.0"/>
      <point x="362.0" y="606.0"/>
      <point x="290.0" y="362.0" type="curve" smooth="yes"/>
      <point x="262.0" y="266.0"/>
      <point x="234.0" y="204.0"/>
      <point x="234.0" y="158.0" type="curve" smooth="yes"/>
      <point x="234.0" y="108.0"/>
      <point x="250.0" y="86.0"/>
      <point x="250.0" y="54.0" type="curve" smooth="yes"/>
      <point x="250.0" y="8.0"/>
      <point x="212.0" y="-20.0"/>
      <point x="166.0" y="-20.0" type="curve" smooth="yes"/>
      <point x="158.0" y="-20.0"/>
      <point x="150.0" y="-6.0"/>
      <point x="150.0" y="20.0" type="curve" smooth="yes"/>
      <point x="150.0" y="52.0"/>
      <point x="162.0" y="86.0"/>
      <point x="176.0" y="136.0" type="curve" smooth="yes"/>
      <point x="466.0" y="1024.0" type="line" smooth="yes"/>
      <point x="538.0" y="1248.0"/>
      <point x="722.0" y="1418.0"/>
      <point x="1010.0" y="1418.0" type="curve" smooth="yes"/>
      <point x="1120.0" y="1418.0"/>
      <point x="1158.0" y="1398.0"/>
      <point x="1158.0" y="1380.0" type="curve" smooth="yes"/>
      <point x="1158.0" y="1348.0"/>
      <point x="1138.0" y="1332.0"/>
      <point x="1096.0" y="1332.0" type="curve" smooth="yes"/>
      <point x="1028.0" y="1332.0"/>
      <point x="926.0" y="1378.0"/>
      <point x="818.0" y="1378.0" type="curve" smooth="yes"/>
      <point x="672.0" y="1378.0"/>
      <point x="556.0" y="1214.0"/>
      <point x="510.0" y="1064.0" type="curve" smooth="yes"/>
      <point x="406.0" y="730.0"/>
      <point x="368.0" y="614.0"/>
      <point x="350.0" y="530.0" type="curve"/>
    </contour>
    <contour>
      <point x="472.0" y="438.0" type="curve"/>
      <point x="524.0" y="472.0" type="line"/>
      <point x="632.0" y="72.0"/>
      <point x="686.0" y="22.0"/>
      <point x="756.0" y="22.0" type="curve" smooth="yes"/>
      <point x="814.0" y="22.0"/>
      <point x="812.0" y="110.0"/>
      <point x="818.0" y="110.0" type="curve" smooth="yes"/>
      <point x="806.0" y="110.0"/>
      <point x="798.0" y="112.0"/>
      <point x="798.0" y="116.0" type="curve" smooth="yes"/>
      <point x="798.0" y="32.0"/>
      <point x="734.0" y="-30.0"/>
      <point x="682.0" y="-30.0" type="curve" smooth="yes"/>
      <point x="594.0" y="-30.0"/>
      <point x="548.0" y="48.0"/>
    </contour>
  </outline>
</glyph>
<glyph name="l" format="2">
  <advance width="444"/>
  <unicode hex="006C"/>
  <outline>
    <contour>
      <point x="682.0" y="1414.0" type="curve" smooth="yes"/>
      <point x="572.0" y="1414.0"/>
      <point x="424.0" y="1306.0"/>
      <point x="336.0" y="1018.0" type="curve" smooth="yes"/>
      <point x="124.0" y="328.0" type="line" smooth="yes"/>
      <point x="88.0" y="208.0"/>
      <point x="60.0" y="134.0"/>
      <point x="60.0" y="34.0" type="curve" smooth="yes"/>
      <point x="60.0" y="0.0"/>
      <point x="84.0" y="-20.0"/>
      <point x="132.0" y="-20.0" type="curve" smooth="yes"/>
      <point x="264.0" y="-20.0"/>
      <point x="350.0" y="84.0"/>
      <point x="350.0" y="170.0" type="curve" smooth="yes"/>
      <point x="350.0" y="164.0"/>
      <point x="354.0" y="160.0"/>
      <point x="356.0" y="160.0" type="curve" smooth="yes"/>
      <point x="350.0" y="160.0"/>
      <point x="346.0" y="150.0"/>
      <point x="340.0" y="136.0" type="curve" smooth="yes"/>
      <point x="310.0" y="42.0"/>
      <point x="258.0" y="-8.0"/>
      <point x="194.0" y="-8.0" type="curve" smooth="yes"/>
      <point x="140.0" y="-8.0"/>
      <point x="110.0" y="18.0"/>
      <point x="110.0" y="66.0" type="curve" smooth="yes"/>
      <point x="110.0" y="142.0"/>
      <point x="118.0" y="180.0"/>
      <point x="138.0" y="244.0" type="curve" smooth="yes"/>
      <point x="438.0" y="1228.0" type="line" smooth="yes"/>
      <point x="442.0" y="1242.0"/>
      <point x="494.0" y="1288.0"/>
      <point x="494.0" y="1288.0" type="curve" smooth="yes"/>
      <point x="494.0" y="1342.0"/>
      <point x="536.0" y="1380.0"/>
      <point x="576.0" y="1380.0" type="curve" smooth="yes"/>
      <point x="618.0" y="1380.0"/>
      <point x="658.0" y="1334.0"/>
      <point x="722.0" y="1334.0" type="curve" smooth="yes"/>
      <point x="748.0" y="1334.0"/>
      <point x="764.0" y="1352.0"/>
      <point x="764.0" y="1374.0" type="curve" smooth="yes"/>
      <point x="764.0" y="1396.0"/>
      <point x="742.0" y="1414.0"/>
    </contour>
  </outline>
</glyph>
<glyph name="o" format="2">
  <advance width="753"/>
  <unicode hex="006F"/>
  <outline>
    <contour>
      <point x="495" y="865" type="curve" smooth="yes"/>
      <point x="267" y="865"/>
      <point x="35" y="617"/>
      <point x="35" y="280" type="curve" smooth="yes"/>
      <point x="35" y="92"/>
      <point x="159" y="-15"/>
      <point x="277" y="-15" type="curve" smooth="yes"/>
      <point x="487" y="-15"/>
      <point x="723" y="238"/>
      <point x="723" y="566" type="curve" smooth="yes"/>
      <point x="723" y="758"/>
      <point x="635" y="865"/>
    </contour>
    <contour>
      <point x="279" y="-7" type="curve" smooth="yes"/>
      <point x="183" y="-7"/>
      <point x="91" y="64"/>
      <point x="91" y="240" type="curve" smooth="yes"/>
      <point x="91" y="571"/>
      <point x="290" y="857"/>
      <point x="495" y="857" type="curve" smooth="yes"/>
      <point x="592" y="857"/>
      <point x="667" y="768"/>
      <point x="667" y="606" type="curve" smooth="yes"/>
      <point x="667" y="240"/>
      <point x="459" y="-7"/>
    </contour>
  </outline>
</glyph>
<glyph name="p" format="2">
  <advance width="750"/>
  <unicode hex="0070"/>
  <outline>
    <contour>
      <point x="522.0" y="1050.0" type="line" smooth="yes"/>
      <point x="510.0" y="1008.0"/>
      <point x="512.0" y="1018.0"/>
      <point x="512.0" y="1024.0" type="curve" smooth="yes"/>
      <point x="512.0" y="1046.0"/>
      <point x="466.0" y="1086.0"/>
      <point x="454.0" y="1086.0" type="curve" smooth="yes"/>
      <point x="482.0" y="1086.0"/>
      <point x="500.0" y="1094.0"/>
      <point x="512.0" y="1150.0" type="curve" smooth="yes"/>
      <point x="20.0" y="-410.0" type="line" smooth="yes"/>
      <point x="4.0" y="-454.0"/>
      <point x="-34.0" y="-474.0"/>
      <point x="-90.0" y="-482.0" type="curve" smooth="yes"/>
      <point x="-96.0" y="-480.0"/>
      <point x="-98.0" y="-480.0"/>
      <point x="-98.0" y="-478.0" type="curve" smooth="yes"/>
      <point x="-98.0" y="-476.0"/>
      <point x="-92.0" y="-476.0"/>
      <point x="-84.0" y="-476.0" type="curve" smooth="yes"/>
      <point x="186.0" y="-456.0" type="line" smooth="yes"/>
      <point x="196.0" y="-456.0"/>
      <point x="200.0" y="-458.0"/>
      <point x="200.0" y="-460.0" type="curve" smooth="yes"/>
      <point x="200.0" y="-460.0"/>
      <point x="194.0" y="-462.0"/>
      <point x="182.0" y="-462.0" type="curve" smooth="yes"/>
      <point x="100.0" y="-454.0"/>
      <point x="78.0" y="-438.0"/>
      <point x="78.0" y="-408.0" type="curve" smooth="yes"/>
      <point x="78.0" y="-394.0"/>
      <point x="80.0" y="-374.0"/>
      <point x="86.0" y="-360.0" type="curve" smooth="yes"/>
    </contour>
    <contour>
      <point x="180.0" y="606.0" type="curve" smooth="yes"/>
      <point x="166.0" y="606.0"/>
      <point x="154.0" y="602.0"/>
      <point x="144.0" y="598.0" type="curve" smooth="yes"/>
      <point x="308.0" y="788.0"/>
      <point x="488.0" y="882.0"/>
      <point x="588.0" y="882.0" type="curve" smooth="yes"/>
      <point x="714.0" y="882.0"/>
      <point x="750.0" y="826.0"/>
      <point x="750.0" y="682.0" type="curve" smooth="yes"/>
      <point x="750.0" y="236.0"/>
      <point x="458.0" y="-44.0"/>
      <point x="302.0" y="-44.0" type="curve" smooth="yes"/>
      <point x="212.0" y="-44.0"/>
      <point x="164.0" y="-6.0"/>
      <point x="158.0" y="22.0" type="curve"/>
      <point x="204.0" y="46.0" type="line"/>
      <point x="236.0" y="-20.0"/>
      <point x="268.0" y="-20.0"/>
      <point x="312.0" y="-20.0" type="curve" smooth="yes"/>
      <point x="476.0" y="-20.0"/>
      <point x="808.0" y="228.0"/>
      <point x="808.0" y="666.0" type="curve" smooth="yes"/>
      <point x="808.0" y="814.0"/>
      <point x="738.0" y="870.0"/>
      <point x="596.0" y="870.0" type="curve" smooth="yes"/>
      <point x="470.0" y="870.0"/>
      <point x="324.0" y="770.0"/>
      <point x="178.0" y="590.0" type="curve" smooth="yes"/>
      <point x="176.0" y="590.0"/>
      <point x="180.0" y="592.0"/>
      <point x="180.0" y="594.0" type="curve" smooth="yes"/>
      <point x="180.0" y="602.0"/>
      <point x="180.0" y="606.0"/>
    </contour>
  </outline>
</glyph>
<glyph name="v" format="2">
  <advance width="775"/>
  <unicode hex="0076"/>
  <outline>
    <contour>
      <point x="734" y="748" type="curve" smooth="yes"/>
      <point x="734.0" y="833.0"/>
      <point x="716.4" y="864.0"/>
      <point x="690" y="864" type="curve" smooth="yes"/>
      <point x="668.2857142857143" y="864.0"/>
      <point x="652.0" y="849.0"/>
      <point x="652" y="820" type="curve" smooth="yes"/>
      <point x="652" y="796"/>
      <point x="666" y="772"/>
      <point x="686" y="752" type="curve" smooth="yes"/>
      <point x="707" y="731"/>
      <point x="714" y="713"/>
      <point x="714" y="662" type="curve" smooth="yes"/>
      <point x="714.0" y="324.5216049382716"/>
      <point x="478.0" y="15.0"/>
      <point x="296" y="15" type="curve" smooth="yes"/>
      <point x="245" y="15"/>
      <point x="216" y="55"/>
      <point x="216" y="147" type="curve" smooth="yes"/>
      <point x="216.0" y="330.7371428571429"/>
      <point x="296.98091281250174" y="536.9713692187527"/>
      <point x="503" y="846" type="curve" smooth="yes"/>
      <point x="507" y="853"/>
      <point x="506" y="858"/>
      <point x="503" y="858" type="curve" smooth="yes"/>
      <point x="499" y="858"/>
      <point x="497" y="856"/>
      <point x="493" y="852" type="curve" smooth="yes"/>
      <point x="475.2100497216741" y="834.2100497216741"/>
      <point x="458.4516129032258" y="828.0"/>
      <point x="430" y="828" type="curve" smooth="yes"/>
      <point x="394.0" y="828.0"/>
      <point x="300" y="863"/>
      <point x="234" y="863.0" type="curve" smooth="yes"/>
      <point x="144" y="863.0"/>
      <point x="60" y="781"/>
      <point x="60" y="688" type="curve" smooth="yes"/>
      <point x="60.0" y="643"/>
      <point x="87.0" y="614.0"/>
      <point x="122" y="614" type="curve" smooth="yes"/>
      <point x="148" y="614"/>
      <point x="162" y="626"/>
      <point x="162" y="642" type="curve" smooth="yes"/>
      <point x="162" y="662"/>
      <point x="150" y="676"/>
      <point x="120" y="682" type="curve" smooth="yes"/>
      <point x="88" y="690"/>
      <point x="76" y="704"/>
      <point x="76" y="722" type="curve" smooth="yes"/>
      <point x="76.0" y="778.0"/>
      <point x="129.0" y="825.0"/>
      <point x="206" y="825" type="curve" smooth="yes"/>
      <point x="294" y="825"/>
      <point x="370.0" y="774.0"/>
      <point x="450" y="774" type="curve"/>
      <point x="458" y="796" type="line"/>
      <point x="454" y="788"/>
      <point x="444" y="774"/>
      <point x="426" y="748" type="curve" smooth="yes"/>
      <point x="226.07907186439178" y="461.54613282062104"/>
      <point x="162.0" y="299.72186495176845"/>
      <point x="162" y="127" type="curve" smooth="yes"/>
      <point x="162" y="23"/>
      <point x="193" y="-15"/>
      <point x="260" y="-15" type="curve" smooth="yes"/>
      <point x="470.0" y="-15.0"/>
      <point x="734.0" y="300.58638743455504"/>
    </contour>
  </outline>
</glyph>
<glyph name="z" format="2">
  <advance width="656"/>
  <unicode hex="007A"/>
  <outline>
    <contour>
      <point x="224.0" y="146.0" type="curve"/>
      <point x="164.0" y="106.0" type="line"/>
      <point x="228.0" y="106.0"/>
      <point x="404.0" y="62.0"/>
      <point x="486.0" y="62.0" type="curve" smooth="yes"/>
      <point x="578.0" y="62.0"/>
      <point x="626.0" y="108.0"/>
      <point x="642.0" y="200.0" type="curve" smooth="yes"/>
      <point x="640.0" y="212.0"/>
      <point x="642.0" y="218.0"/>
      <point x="640.0" y="218.0" type="curve" smooth="yes"/>
      <point x="636.0" y="218.0"/>
      <point x="634.0" y="216.0"/>
      <point x="634.0" y="216.0" type="curve" smooth="yes"/>
      <point x="634.0" y="74.0"/>
      <point x="548.0" y="-20.0"/>
      <point x="460.0" y="-20.0" type="curve" smooth="yes"/>
      <point x="400.0" y="-20.0"/>
      <point x="270.0" y="132.0"/>
      <point x="232.0" y="132.0" type="curve" smooth="yes"/>
      <point x="192.0" y="132.0"/>
      <point x="178.0" y="-20.0"/>
      <point x="94.0" y="-20.0" type="curve" smooth="yes"/>
      <point x="72.0" y="-20.0"/>
      <point x="58.0" y="-4.0"/>
      <point x="58.0" y="18.0" type="curve" smooth="yes"/>
      <point x="58.0" y="48.0"/>
      <point x="70.0" y="74.0"/>
      <point x="92.0" y="92.0" type="curve" smooth="yes"/>
      <point x="142.0" y="128.0"/>
      <point x="302.0" y="246.0"/>
      <point x="482.0" y="400.0" type="curve" smooth="yes"/>
      <point x="638.0" y="536.0"/>
      <point x="672.0" y="634.0"/>
      <point x="672.0" y="700.0" type="curve"/>
      <point x="728.0" y="748.0" type="line"/>
      <point x="640.0" y="748.0"/>
      <point x="404.0" y="790.0"/>
      <point x="330.0" y="790.0" type="curve" smooth="yes"/>
      <point x="260.0" y="790.0"/>
      <point x="238.0" y="764.0"/>
      <point x="238.0" y="734.0" type="curve" smooth="yes"/>
      <point x="238.0" y="698.0"/>
      <point x="258.0" y="674.0"/>
      <point x="288.0" y="658.0" type="curve" smooth="yes"/>
      <point x="314.0" y="646.0"/>
      <point x="328.0" y="642.0"/>
      <point x="328.0" y="620.0" type="curve" smooth="yes"/>
      <point x="328.0" y="602.0"/>
      <point x="314.0" y="588.0"/>
      <point x="292.0" y="588.0" type="curve" smooth="yes"/>
      <point x="272.0" y="588.0"/>
      <point x="260.0" y="604.0"/>
      <point x="260.0" y="628.0" type="curve" smooth="yes"/>
      <point x="260.0" y="762.0"/>
      <point x="350.0" y="870.0"/>
      <point x="476.0" y="870.0" type="curve" smooth="yes"/>
      <point x="560.0" y="870.0"/>
      <point x="632.0" y="714.0"/>
      <point x="666.0" y="714.0" type="curve" smooth="yes"/>
      <point x="686.0" y="714.0"/>
      <point x="692.0" y="730.0"/>
      <point x="694.0" y="790.0" type="curve" smooth="yes"/>
      <point x="694.0" y="844.0"/>
      <point x="716.0" y="870.0"/>
      <point x="750.0" y="870.0" type="curve" smooth="yes"/>
      <point x="768.0" y="870.0"/>
      <point x="788.0" y="834.0"/>
      <point x="788.0" y="814.0" type="curve" smooth="yes"/>
      <point x="788.0" y="736.0"/>
      <point x="756.0" y="700.0"/>
      <point x="698.0" y="632.0" type="curve" smooth="yes"/>
      <point x="650.0" y="580.0"/>
      <point x="536.0" y="466.0"/>
      <point x="448.0" y="392.0" type="curve" smooth="yes"/>
      <point x="268.0" y="244.0"/>
      <point x="236.0" y="198.0"/>
    </contour>
  </outline>
</glyph>
<glyph name="b.alt" format="2">
  <advance width="818"/>
  <outline>
    <contour>
      <point x="633" y="836" type="curve" smooth="yes"/>
      <point x="701" y="836"/>
      <point x="741" y="783"/>
      <point x="741" y="658" type="curve" smooth="yes"/>
      <point x="741" y="284"/>
      <point x="464" y="-7"/>
      <point x="266" y="-7" type="curve" smooth="yes"/>
      <point x="179" y="-7"/>
      <point x="132" y="39"/>
      <point x="132" y="146" type="curve" smooth="yes"/>
      <point x="132" y="379"/>
      <point x="451" y="836"/>
    </contour>
    <contour>
      <point x="356" y="1178" type="curve" smooth="yes"/>
      <point x="27" y="7" type="line" smooth="yes"/>
      <point x="25" y="1"/>
      <point x="25" y="-5"/>
      <point x="25" y="-7" type="curve" smooth="yes"/>
      <point x="25" y="-9"/>
      <point x="29" y="-13"/>
      <point x="31" y="-13" type="curve" smooth="yes"/>
      <point x="37" y="-13"/>
      <point x="39" y="-11"/>
      <point x="43" y="-3" type="curve" smooth="yes"/>
      <point x="126" y="186" type="line"/>
      <point x="98" y="216" type="line"/>
      <point x="98" y="44"/>
      <point x="137" y="-15"/>
      <point x="266" y="-15" type="curve" smooth="yes"/>
      <point x="503" y="-15"/>
      <point x="797" y="317"/>
      <point x="797" y="684" type="curve" smooth="yes"/>
      <point x="797" y="798"/>
      <point x="753" y="865"/>
      <point x="660" y="865" type="curve" smooth="yes"/>
      <point x="484" y="865"/>
      <point x="240" y="567"/>
      <point x="140" y="264" type="curve"/>
      <point x="148" y="264" type="line"/>
      <point x="400" y="1178" type="line" smooth="yes"/>
      <point x="422" y="1258"/>
      <point x="442" y="1316"/>
      <point x="442" y="1356" type="curve" smooth="yes"/>
      <point x="442" y="1396"/>
      <point x="420" y="1416"/>
      <point x="384" y="1416" type="curve" smooth="yes"/>
      <point x="316" y="1416"/>
      <point x="270" y="1384"/>
      <point x="220" y="1328" type="curve" smooth="yes"/>
      <point x="218" y="1324"/>
      <point x="218" y="1322"/>
      <point x="220" y="1320" type="curve" smooth="yes"/>
      <point x="222" y="1318"/>
      <point x="226" y="1320"/>
      <point x="228" y="1324" type="curve" smooth="yes"/>
      <point x="258" y="1362"/>
      <point x="296" y="1378"/>
      <point x="342" y="1378" type="curve" smooth="yes"/>
      <point x="368" y="1378"/>
      <point x="386" y="1362"/>
      <point x="386" y="1322" type="curve" smooth="yes"/>
      <point x="386" y="1278"/>
      <point x="372" y="1234"/>
    </contour>
  </outline>
</glyph>
